<svg width="32" height="32" viewBox="0 0 44 44" fill="none" xmlns="http://www.w3.org/2000/svg">
  <rect width="44" height="44" rx="10" fill="#4A7060"/>
  <path
    d="M 29 14.5 C 29 10.5 25.5 8 22 8 C 18.5 8 15 10.5 15 14 C 15 17.5 18 19 22 20.5 C 26 22 29 23.5 29 27 C 29 30.5 25.5 33 22 33 C 18.5 33 15 30.5 15 27"
    stroke="white" stroke-width="2.8" stroke-linecap="round"
  />
  <line x1="15.5" y1="10" x2="28.5" y2="10" stroke="white" stroke-width="2" stroke-linecap="round"/>
  <line x1="15.5" y1="35" x2="28.5" y2="35" stroke="white" stroke-width="2" stroke-linecap="round"/>
  <circle cx="34" cy="9"  r="2"   fill="#B8D4C8" fill-opacity="0.9"/>
  <circle cx="38" cy="15" r="1.4" fill="#B8D4C8" fill-opacity="0.65"/>
  <circle cx="39" cy="22" r="0.9" fill="#B8D4C8" fill-opacity="0.4"/>
</svg>
