<svg width="32" height="32" viewBox="0 0 32 32" fill="none" xmlns="http://www.w3.org/2000/svg">
  <!-- Shield shape -->
  <path d="M16 1 L30 6 L30 18 C30 24 24 29 16 31 C8 29 2 24 2 18 L2 6 Z" fill="#C5A94E" />
  <path d="M16 3 L28 7.5 L28 18 C28 23 23 27.5 16 29.5 C9 27.5 4 23 4 18 L4 7.5 Z" fill="#2D5A3D" />
  <!-- Scales pillar -->
  <rect x="14.5" y="9" width="3" height="14" rx="0.5" fill="#C5A94E" opacity="0.9"/>
  <rect x="13" y="22" width="6" height="1.5" rx="0.5" fill="#C5A94E" opacity="0.9"/>
  <!-- Balance beam -->
  <line x1="8" y1="12" x2="24" y2="12" stroke="#C5A94E" stroke-width="1.2" stroke-linecap="round"/>
  <!-- Left pan -->
  <line x1="8" y1="12" x2="7" y2="17" stroke="#C5A94E" stroke-width="0.8"/>
  <line x1="8" y1="12" x2="12" y2="17" stroke="#C5A94E" stroke-width="0.8"/>
  <path d="M6.5 17 Q9.5 19.5 12.5 17" stroke="#C5A94E" stroke-width="1" fill="none"/>
  <!-- Right pan -->
  <line x1="24" y1="12" x2="20" y2="17" stroke="#C5A94E" stroke-width="0.8"/>
  <line x1="24" y1="12" x2="25" y2="17" stroke="#C5A94E" stroke-width="0.8"/>
  <path d="M19.5 17 Q22.5 19.5 25.5 17" stroke="#C5A94E" stroke-width="1" fill="none"/>
  <!-- Top sphere -->
  <circle cx="16" cy="9" r="1.5" fill="#C5A94E"/>
  <!-- AI nodes -->
  <circle cx="19" cy="14" r="1" fill="#7CB68A" opacity="0.8"/>
  <circle cx="20.5" cy="16" r="0.8" fill="#7CB68A" opacity="0.6"/>
  <circle cx="18" cy="16.5" r="0.7" fill="#7CB68A" opacity="0.5"/>
</svg>
