<svg xmlns="http://www.w3.org/2000/svg" xml:space="preserve" width="333" height="70" fill-rule="evenodd" clip-rule="evenodd" image-rendering="optimizeQuality" shape-rendering="geometricPrecision" text-rendering="geometricPrecision" viewBox="0 0 333 70"><g fill-rule="nonzero"><path fill="#669332" d="M44.01 20.5a6.005 6.005 0 0 1-5.93 5.07c-1.88 0-3.56-.87-4.66-2.23a7.55 7.55 0 0 1-4 1.13c-.16 0-.31 0-.47-.01.01.16.01.32.01.48 0 1.02-.15 2-.44 2.93 3.68.66 6.47 3.87 6.47 7.73 0 4.34-3.52 7.86-7.87 7.86-4.34 0-7.86-3.52-7.86-7.86 0-.26.02-.51.04-.77l-.23.01c-4.89 0-8.95-3.55-9.75-8.21-.64.18-1.32.27-2.02.27-4.21 0-7.62-3.41-7.62-7.62s3.41-7.62 7.62-7.62c.24 0 .47.01.71.03-.05-.39-.08-.78-.08-1.18 0-5.05 4.09-9.13 9.13-9.13 2.35 0 4.49.89 6.11 2.34a6 6 0 0 1 4.21-1.73c1.39 0 2.68.48 3.69 1.28a7.7 7.7 0 0 1 5.45-2.25c1.92 0 3.68.7 5.03 1.87a6.04 6.04 0 0 1 4.08-1.57 6.05 6.05 0 0 1 6.02 6.65c2.18.51 3.79 2.45 3.79 4.78 0 2.71-2.19 4.9-4.9 4.9-.59 0-1.16-.1-1.68-.29-.94 1.76-2.75 3-4.85 3.14m-5.92 2.15c1.7 0 3.07-1.38 3.07-3.07 0-1.7-1.38-3.08-3.08-3.08a3.08 3.08 0 0 0-3.07 3.08 3.08 3.08 0 0 0 3.08 3.07m4.18-8.09c0 .73.59 1.32 1.33 1.32.73 0 1.32-.59 1.32-1.32 0-.74-.59-1.33-1.32-1.33-.74 0-1.33.59-1.33 1.33m8.27-4.33c-1.39 0-2.52 1.13-2.52 2.52s1.13 2.51 2.52 2.51 2.52-1.12 2.52-2.51-1.13-2.52-2.52-2.52m-4.91-4.36c-.83 0-1.5.67-1.5 1.5s.67 1.5 1.5 1.5c.82 0 1.5-.67 1.5-1.5s-.68-1.5-1.5-1.5m-9.11-1.68c-2.5 0-4.53 2.03-4.53 4.53s2.03 4.53 4.53 4.53 4.53-2.03 4.53-4.53-2.03-4.53-4.53-4.53M27.38 6.5c-.82 0-1.49.67-1.49 1.48 0 .82.67 1.49 1.49 1.49a1.485 1.485 0 0 0 0-2.97M7.3 16.16c-1.72 0-3.11 1.4-3.11 3.12s1.39 3.11 3.11 3.11 3.11-1.39 3.11-3.11-1.39-3.12-3.11-3.12m22.12-3.04c-2.06 0-3.74 1.67-3.74 3.73a3.74 3.74 0 0 0 7.48 0c0-2.06-1.68-3.73-3.74-3.73m-2.3 19.02c-1.91 0-3.46 1.55-3.46 3.46a3.465 3.465 0 1 0 3.46-3.46m-8.05-12.58c-2.97 0-5.38 2.41-5.38 5.38a5.386 5.386 0 1 0 5.38-5.38M17.06 5.89c-2.55 0-4.62 2.06-4.62 4.62 0 2.55 2.07 4.62 4.62 4.62s4.62-2.07 4.62-4.62c0-2.56-2.07-4.62-4.62-4.62"/><path fill="#fff" d="m44.84 54.46-.15.14h-.91l-.16-.14-.39-1.62h-1.96l-.39 1.62-.16.14h-.9l-.16-.14 1.41-5.38c.2-.8.82-.87 1.18-.87.37 0 .98.07 1.19.87l1.39 5.34zM43 51.87l-.61-2.53c-.03-.1-.05-.13-.14-.13-.08 0-.11.03-.13.13l-.62 2.53zM39.26 54.53l-.13.07h-1.14c-.1 0-.15-.02-.19-.09l-1.95-2.9v2.82c0 .1-.08.17-.17.17h-.85c-.09 0-.17-.07-.17-.17v-5.98c0-.1.08-.17.17-.17h.85c.09 0 .17.07.17.17v2.71l2.08-2.81c.05-.06.11-.07.2-.07h.97c.11 0 .16.05.16.11l-.06.13-2.18 2.82 2.2 3.09zM33.64 52.89c0 .86-.53 1.78-2.24 1.78-.64 0-1.1-.06-1.5-.15-.09-.02-.17-.08-.17-.17v-.62c0-.09.08-.16.17-.16.35.05 1.2.09 1.52.09.76 0 .99-.27.99-.77 0-.33-.16-.5-.73-.83l-1.12-.68c-.79-.46-1-.96-1-1.55 0-.94.54-1.62 2.12-1.62.57 0 1.35.08 1.64.15l.15.16v.63l-.14.16c-.58-.05-1.14-.09-1.7-.09-.63 0-.89.22-.89.61 0 .28.14.45.7.75l1.02.58c.94.51 1.18 1.06 1.18 1.73M28.85 54.5l-1.14.1c-.1 0-.13-.08-.17-.17l-1.23-2.27h-.12c-.22 0-.56-.03-.76-.03v2.3c0 .1-.06.17-.16.17h-.85c-.09 0-.17-.07-.17-.17v-5.85c0-.18.1-.23.27-.26.45-.07 1.05-.11 1.67-.11 1.31 0 2.45.47 2.45 1.92 0 .98-.45 1.54-1.15 1.82l1.34 2.48zm-1.38-4.29c0-.72-.43-.99-1.28-.99-.18 0-.6.02-.76.04v1.91c.14.01.62.03.76.03.88 0 1.28-.24 1.28-.99M23.1 54.37c0 .12-.04.17-.17.18-.27.05-.6.12-1.62.12-1.1 0-1.96-.3-1.96-1.74v-2.97c0-1.45.86-1.75 1.96-1.75 1.02 0 1.35.07 1.62.12.13.02.17.06.17.18v.54c0 .09-.08.17-.17.17h-1.74c-.49 0-.67.17-.67.74v.91h2.31c.09 0 .17.08.17.17v.62c0 .09-.08.17-.17.17h-2.31v1.1c0 .56.18.73.67.73h1.74c.09 0 .17.07.17.17zM18.35 53.43c0 .9-.45 1.24-1.37 1.24a4 4 0 0 1-.68-.07l-.08-.12v-.6c0-.1.07-.16.17-.16h.56c.15 0 .21-.05.21-.29v-4.98c0-.1.08-.17.17-.17h.85c.09 0 .17.07.17.17zM15.87 54.46l-.16.14h-.9l-.16-.14-.39-1.62H12.3l-.39 1.62-.17.14h-.9l-.15-.14 1.4-5.38c.21-.8.82-.87 1.19-.87.36 0 .98.07 1.18.87l1.4 5.34zm-1.84-2.59-.62-2.53c-.02-.1-.05-.13-.13-.13-.09 0-.12.03-.14.13l-.61 2.53zM10.53 49.12c0 .09-.07.15-.17.15H8.87v5.16c0 .1-.08.17-.17.17h-.84c-.1 0-.17-.07-.17-.17v-5.16H6.2c-.1 0-.17-.06-.17-.15v-.67c0-.1.07-.17.17-.17h4.16c.1 0 .17.07.17.17zM5.43 52.89c0 .86-.53 1.78-2.24 1.78-.64 0-1.1-.06-1.51-.15-.08-.02-.16-.08-.16-.17v-.62c0-.09.08-.16.16-.16.36.05 1.21.09 1.53.09.76 0 .99-.27.99-.77 0-.33-.17-.5-.73-.83l-1.12-.68c-.79-.46-1.01-.96-1.01-1.55 0-.94.55-1.62 2.13-1.62.56 0 1.35.08 1.64.15l.15.16v.63l-.14.16c-.58-.05-1.15-.09-1.7-.09-.63 0-.89.22-.89.61 0 .28.14.45.7.75l1.02.58c.93.51 1.18 1.06 1.18 1.73M60.54 62.12l-.15.15h-.9l-.17-.15-.39-1.62h-1.96l-.39 1.62-.16.15h-.9l-.15-.15 1.4-5.38c.2-.79.82-.87 1.18-.87.37 0 .98.08 1.19.87l1.39 5.34zm-1.84-2.58-.61-2.53c-.03-.11-.05-.14-.14-.14-.08 0-.11.03-.13.14l-.62 2.53zM54.97 62.19l-.13.08H53.7c-.11 0-.16-.03-.2-.1l-1.95-2.9v2.83c0 .09-.08.17-.17.17h-.84c-.1 0-.17-.08-.17-.17v-5.99c0-.09.07-.16.17-.16h.84c.09 0 .17.07.17.16v2.71l2.09-2.8c.04-.06.1-.07.19-.07h.97c.11 0 .17.04.17.1l-.06.14-2.18 2.82 2.19 3.08zM49.34 60.56c0 .86-.53 1.78-2.23 1.78-.64 0-1.1-.06-1.51-.16-.09-.01-.16-.07-.16-.17v-.61c0-.09.07-.16.16-.16.36.04 1.21.08 1.52.08.76 0 .99-.27.99-.76 0-.34-.16-.51-.72-.84l-1.13-.67c-.79-.47-1-.96-1-1.56 0-.94.54-1.62 2.13-1.62.56 0 1.34.09 1.63.16l.16.16v.63l-.15.15c-.58-.05-1.14-.08-1.69-.08-.64 0-.9.22-.9.6 0 .28.15.45.7.76l1.02.57c.94.52 1.18 1.06 1.18 1.74M44.55 62.17l-1.14.1c-.09 0-.13-.09-.17-.17l-1.23-2.28h-.12c-.22 0-.56-.02-.75-.03v2.31c0 .09-.07.17-.17.17h-.85c-.09 0-.17-.08-.17-.17v-5.86c0-.17.11-.23.28-.26.44-.07 1.04-.11 1.66-.11 1.32 0 2.46.47 2.46 1.93 0 .98-.46 1.54-1.15 1.81l1.33 2.49zm-1.38-4.3c0-.71-.42-.98-1.28-.98-.17 0-.6.01-.75.03v1.92c.13.01.61.02.75.02.88 0 1.28-.24 1.28-.99M39.15 62.12l-.15.15h-.9l-.17-.15-.39-1.62h-1.96l-.39 1.62-.16.15h-.9l-.16-.15 1.41-5.38c.2-.79.82-.87 1.18-.87.37 0 .98.08 1.19.87l1.39 5.34zm-1.84-2.58-.61-2.53c-.03-.11-.05-.14-.14-.14-.08 0-.11.03-.13.14l-.62 2.53zM33.35 59.73c0 1.69-.98 2.61-2.68 2.61-.6 0-1.42-.06-1.68-.11-.14-.02-.22-.09-.22-.26v-5.73c0-.17.08-.24.22-.26.26-.05 1.08-.11 1.68-.11 1.7 0 2.68.92 2.68 2.61zm-1.18 0v-1.25c0-1.28-.65-1.61-1.5-1.61-.31 0-.54.02-.71.03v4.41c.17.01.4.03.71.03.85 0 1.5-.33 1.5-1.61M27.67 59.68c0 1.87-1.03 2.66-2.43 2.66-1.41 0-2.43-.79-2.43-2.66v-1.15c0-1.87 1.02-2.66 2.43-2.66 1.4 0 2.43.79 2.43 2.66zm-1.2 0v-1.15c0-1.12-.4-1.63-1.23-1.63-.84 0-1.24.51-1.24 1.63v1.15c0 1.12.4 1.63 1.24 1.63.83 0 1.23-.51 1.23-1.63M22.05 57.92c0 1.51-1.15 2-2.46 2-.22 0-.56-.03-.76-.04v2.22c0 .09-.06.17-.16.17h-.85c-.09 0-.17-.08-.17-.17v-5.86c0-.17.1-.23.27-.26.45-.07 1.05-.11 1.67-.11 1.31 0 2.45.46 2.45 1.97zm-1.18 0c0-.79-.43-1.07-1.28-1.07-.18 0-.6.02-.76.04v2.03c.14.01.62.03.76.03.92 0 1.28-.35 1.28-1.03M16.63 60.56c0 .86-.54 1.78-2.24 1.78-.64 0-1.1-.06-1.51-.16-.08-.01-.16-.07-.16-.17v-.61c0-.09.08-.16.16-.16.36.04 1.21.08 1.53.08.75 0 .98-.27.98-.76 0-.34-.16-.51-.72-.84l-1.12-.67c-.8-.47-1.01-.96-1.01-1.56 0-.94.55-1.62 2.13-1.62.56 0 1.35.09 1.64.16l.15.16v.63l-.15.15c-.58-.05-1.14-.08-1.69-.08-.63 0-.9.22-.9.6 0 .28.15.45.7.76l1.03.57c.93.52 1.18 1.06 1.18 1.74M11.69 59.68c0 1.87-1.02 2.66-2.43 2.66-1.4 0-2.42-.79-2.42-2.66v-1.15c0-1.87 1.02-2.66 2.42-2.66 1.41 0 2.43.79 2.43 2.66zm-1.19 0v-1.15c0-1.12-.4-1.63-1.24-1.63-.83 0-1.23.51-1.23 1.63v1.15c0 1.12.4 1.63 1.23 1.63.84 0 1.24-.51 1.24-1.63M5.73 61.99c0 .11-.05.18-.16.2-.43.09-.98.15-1.86.15-.92 0-2.28-.61-2.28-2.62v-1.23c0-2.01 1.29-2.62 2.31-2.62.81 0 1.55.11 1.83.16.11.02.16.06.16.17v.58c0 .12-.04.17-.17.17-.42-.03-1.01-.06-1.82-.06-.57 0-1.12.4-1.12 1.61v1.22c0 1.21.59 1.6 1.09 1.6.32 0 .58-.01.84-.02v-2.17c0-.1.07-.17.17-.17h.84c.09 0 .17.07.17.17zM41.51 69.79l-.15.14h-.91l-.16-.14-.39-1.62h-1.96l-.39 1.62-.16.14h-.9l-.16-.14 1.41-5.38c.2-.8.82-.87 1.18-.87.37 0 .98.07 1.19.87l1.39 5.33zm-1.84-2.59-.61-2.53c-.03-.1-.05-.14-.14-.14-.08 0-.11.04-.13.14l-.62 2.53zM35.79 69.67c0 .12-.08.16-.19.19-.13.04-.69.14-1.34.14-1.03 0-2.41-.5-2.41-2.61v-1.25c0-2.13 1.38-2.6 2.41-2.6.65 0 1.21.1 1.34.13.11.04.19.08.19.2v.57c0 .1-.04.18-.17.18-.32-.03-.9-.07-1.35-.07-.71 0-1.23.38-1.23 1.59v1.25c0 1.19.52 1.6 1.23 1.6.45 0 1.03-.05 1.33-.07.15 0 .19.08.19.18zM30.74 69.76c0 .09-.08.17-.17.17h-.84c-.1 0-.17-.08-.17-.17v-5.98c0-.1.07-.17.17-.17h.84c.09 0 .17.07.17.17zM28.28 69.59c0 .19-.16.34-.34.34h-.86c-.21 0-.38 0-.52-.3l-1.89-4.15c-.11-.06-.12-.05-.12 0v4.28c0 .09-.07.17-.16.17h-.73c-.09 0-.17-.08-.17-.17v-5.81c0-.18.16-.34.34-.34h.92c.18 0 .28.05.38.28l1.98 4.37.11-4.48c0-.1.07-.17.16-.17h.74c.09 0 .16.07.16.17zM22.53 69.83l-1.14.1c-.09 0-.13-.08-.17-.17l-1.23-2.27h-.12c-.22 0-.56-.03-.75-.04v2.31c0 .09-.07.17-.17.17h-.85c-.09 0-.17-.08-.17-.17V63.9c0-.17.1-.23.27-.25.45-.07 1.05-.11 1.67-.11 1.31 0 2.46.47 2.46 1.92 0 .98-.46 1.54-1.15 1.82l1.33 2.48zm-1.38-4.29c0-.72-.42-.99-1.28-.99-.18 0-.6.02-.75.03v1.92c.13.01.61.03.75.03.88-.01 1.28-.24 1.28-.99M16.82 67.34c0 1.88-1.02 2.66-2.42 2.66-1.41 0-2.43-.78-2.43-2.66v-1.15c0-1.87 1.02-2.65 2.43-2.65 1.4 0 2.42.78 2.42 2.65zm-1.19 0v-1.15c0-1.12-.4-1.62-1.23-1.62-.84 0-1.24.5-1.24 1.62v1.15c0 1.13.4 1.63 1.24 1.63.83 0 1.23-.5 1.23-1.63M11.08 68.16c0 1.35-1.01 1.84-2.59 1.84-.69 0-1.21-.04-1.48-.09-.28-.06-.4-.15-.4-.46v-5.37c0-.3.11-.42.38-.46.22-.03.76-.08 1.42-.08 1.54 0 2.62.44 2.62 1.73v.17c0 .56-.26 1.06-.78 1.28.52.22.83.66.83 1.3zm-1.16-.02c0-.58-.25-1.01-1.05-1.01H7.79V69c.2 0 .52.02.7.02 1.09 0 1.43-.28 1.43-.88m-.04-2.69v-.12c0-.59-.38-.81-1.47-.81-.2 0-.44 0-.62.01v1.73h1.08c.79 0 1.01-.37 1.01-.81M5.63 69.76c0 .09-.08.17-.17.17H1.74c-.25 0-.44-.08-.44-.31v-.47c0-.1.03-.2.11-.33l2.7-4.03c.03-.12 0-.15-.06-.15H1.68c-.09 0-.16-.06-.16-.15v-.71c0-.1.07-.17.16-.17h3.44c.24 0 .45.11.45.33v.49c0 .12-.05.25-.12.35l-2.66 3.97c-.03.13-.02.14.04.14h2.63c.09 0 .17.06.17.16zM173.04 67.94v-29.6c0-.53-.26-.79-.79-.79h-5.64c-.5 0-.75.26-.75.79v29.6c0 .22.07.42.21.59.14.16.32.25.54.25h5.64c.22 0 .41-.09.56-.25a.83.83 0 0 0 .23-.59M163.12 37.55h-5.88c-.23 0-.4.07-.53.21q-.18.21-.27.54l-5.25 24.26c-.09.42-.29.63-.59.63-.31 0-.51-.21-.59-.63l-5.26-24.26c-.05-.22-.15-.4-.29-.54a.74.74 0 0 0-.55-.21h-5.84c-.22 0-.41.06-.55.18-.14.13-.21.29-.21.49 0 .05.01.09.02.1.02.02.03.05.03.11l6.26 26.06c.25 1.01.61 1.82 1.09 2.44s1.03 1.09 1.66 1.41 1.31.54 2.04.65 1.46.17 2.19.17 1.45-.06 2.16-.17a6.6 6.6 0 0 0 2.02-.65c.63-.32 1.18-.79 1.66-1.41s.84-1.43 1.09-2.44l6.27-26.06c0-.06 0-.1.02-.13.01-.03.02-.05.02-.08 0-.45-.24-.67-.72-.67M135.34 67.94v-29.6c0-.53-.27-.79-.8-.79h-5.63c-.51 0-.76.26-.76.79v29.6c0 .22.07.42.21.59a.7.7 0 0 0 .55.25h5.63c.22 0 .41-.09.57-.25.15-.17.23-.37.23-.59M125.21 67.94v-4.63c0-.22-.09-.4-.26-.54a.86.86 0 0 0-.58-.21h-11.35c-.31 0-.47-.1-.47-.3 0-.11.07-.26.21-.46l11.86-18.16c.22-.36.33-.73.33-1.09v-.97q0-.42.03-.9c.01-.32.02-.64.02-.95 0-.14-.01-.27-.02-.4-.02-.12-.03-.23-.03-.31v-.3c-.02-.39-.2-.68-.52-.88s-.71-.29-1.16-.29h-18.11c-.23 0-.42.07-.59.23-.17.15-.26.34-.26.56v4.63c0 .22.09.41.26.57.17.15.36.23.59.23h10.46c.31 0 .47.11.47.33 0 .14-.06.28-.17.42l-11.73 17.74q-.375.6-.51.99c-.08.27-.12.55-.12.86v3.37c0 .47.17.81.5 1 .34.2.74.3 1.22.3h19.09c.22 0 .42-.09.58-.25.17-.17.26-.37.26-.59M101.46 67.94v-4.63c0-.22-.09-.4-.26-.54a.86.86 0 0 0-.58-.21H89.27c-.31 0-.47-.1-.47-.3 0-.11.07-.26.21-.46l11.86-18.16c.22-.36.33-.73.33-1.09v-.97q0-.42.03-.9c.01-.32.02-.64.02-.95 0-.14-.01-.27-.02-.4-.02-.12-.03-.23-.03-.31v-.3c-.02-.39-.2-.68-.52-.88s-.71-.29-1.16-.29H81.41c-.23 0-.42.07-.59.23-.17.15-.26.34-.26.56v4.63c0 .22.09.41.26.57.17.15.36.23.59.23h10.46c.31 0 .46.11.46.33 0 .14-.05.28-.16.42L80.44 62.26q-.375.6-.51.99c-.08.27-.12.55-.12.86v3.37c0 .47.17.81.5 1 .34.2.74.3 1.22.3h19.09c.22 0 .42-.09.58-.25.17-.17.26-.37.26-.59M76.87 67.94v-29.6c0-.53-.27-.79-.8-.79h-5.64c-.5 0-.75.26-.75.79v29.6c0 .22.07.42.21.59.14.16.32.25.54.25h5.64c.22 0 .41-.09.56-.25a.84.84 0 0 0 .24-.59M332.32 30.77V1.18c0-.54-.26-.8-.8-.8h-5.63c-.5 0-.76.26-.76.8v29.59c0 .22.07.42.22.59.13.17.32.25.54.25h5.63c.23 0 .42-.08.57-.25a.83.83 0 0 0 .23-.59M322.53.38h-6.43c-.42 0-.73.17-.93.5l-9.25 13.66V1.18c0-.23-.08-.42-.25-.57a.81.81 0 0 0-.59-.23h-5.5c-.23 0-.42.07-.59.23-.17.15-.26.34-.26.57v29.59c0 .22.09.42.26.59s.36.25.59.25h5.5c.23 0 .42-.08.59-.25a.8.8 0 0 0 .25-.59V17.15l8.54 13.87c.11.17.23.31.35.42.13.12.32.17.57.17h7.23c.4 0 .59-.14.59-.42 0-.17-.06-.32-.17-.46l-10.04-15.09 10-14.21c.14-.23.21-.42.21-.59 0-.31-.22-.46-.67-.46M294.93 18.12c-.8-1.4-2.29-2.69-4.48-3.87l-5.38-2.9c-.56-.31-1.02-.58-1.38-.82-.37-.24-.66-.46-.87-.67a2 2 0 0 1-.44-.65c-.08-.23-.12-.49-.12-.8 0-.76.24-1.32.73-1.68.49-.37 1.34-.55 2.55-.55.7 0 1.5.02 2.41.06q1.365.06 2.67.15c.87.06 1.65.1 2.34.15.68.04 1.18.07 1.49.1h.08q.42 0 .57-.21c.1-.14.15-.31.15-.5V1.68c0-.22-.07-.39-.19-.5-.13-.12-.28-.2-.44-.26-.4-.11-.94-.22-1.64-.33s-1.46-.21-2.27-.3c-.82-.08-1.66-.15-2.55-.21-.88-.05-1.7-.08-2.46-.08-2.04 0-3.75.21-5.12.63-1.38.42-2.49 1-3.32 1.74-.85.75-1.44 1.62-1.79 2.61-.35 1-.53 2.07-.53 3.22 0 .75.08 1.49.23 2.2.16.72.42 1.41.8 2.08.38.68.88 1.32 1.52 1.94.63.61 1.43 1.22 2.41 1.81l5.8 3.44c1.1.65 1.83 1.19 2.21 1.62.38.44.57.96.57 1.58 0 1.01-.26 1.75-.78 2.23-.52.47-1.51.71-2.96.71q-.63 0-1.71-.06c-.71-.05-1.46-.09-2.24-.13-.79-.04-1.55-.09-2.3-.15-.74-.05-1.32-.11-1.74-.16h-.13c-.22 0-.4.05-.54.16q-.21.18-.21.63v4.12c0 .23.08.41.25.55s.36.24.59.29c1.06.29 2.23.51 3.51.68 1.27.17 2.75.25 4.43.25 2.13 0 3.93-.27 5.38-.82 1.46-.55 2.64-1.25 3.56-2.12.91-.87 1.56-1.85 1.95-2.95.39-1.09.59-2.2.59-3.32 0-1.71-.4-3.26-1.2-4.66M273.68 30.64l-6.38-11.85c1.55-.62 2.85-1.61 3.89-2.99 1.04-1.37 1.57-3.18 1.57-5.42v-.54c0-1.85-.33-3.41-.97-4.67-.65-1.26-1.54-2.28-2.68-3.05-1.13-.77-2.47-1.32-4.02-1.64Q262.78 0 260.08 0c-.76 0-1.54.01-2.34.04s-1.58.07-2.33.13c-.76.05-1.48.11-2.15.17-.68.05-1.25.12-1.73.21-.64.11-1.12.29-1.43.54s-.46.74-.46 1.47v28.21c0 .22.08.42.25.59s.37.25.59.25h5.5c.22 0 .42-.08.59-.25s.26-.37.26-.59V20.09c.39 0 .87.02 1.44.05.57.02 1.08.04 1.53.04l.46-.04 5.6 10.63c.12.22.23.42.34.59s.28.25.51.25h6.47c.42 0 .63-.17.63-.5 0-.14-.04-.3-.13-.47m-8.11-20.26c0 .73-.1 1.35-.29 1.85-.2.51-.52.91-.97 1.22-.44.31-1.04.54-1.78.69-.73.16-1.65.24-2.74.24h-.58c-.28 0-.58-.01-.9-.02-.32-.02-.62-.03-.9-.05-.28-.01-.47-.02-.58-.02V6.22c.11 0 .32-.01.62-.02.31-.01.63-.03.96-.04.34-.02.67-.03.99-.04q.48-.03.69-.03c1.76 0 3.11.31 4.06.91.94.6 1.42 1.55 1.42 2.84zM247.98 30.85c-.02-.02-.02-.07-.02-.12l-6.27-26.06c-.25-1.01-.61-1.83-1.09-2.44-.48-.62-1.03-1.09-1.66-1.41a6.7 6.7 0 0 0-2.02-.65c-.71-.11-1.44-.17-2.16-.17-.73 0-1.46.06-2.19.17s-1.41.33-2.04.65-1.18.79-1.66 1.41c-.48.61-.84 1.43-1.09 2.44l-6.27 26.06c0 .05 0 .1-.02.12-.01.03-.02.06-.02.09 0 .45.24.67.72.67h5.88c.23 0 .41-.07.55-.21s.24-.32.29-.55l1.52-6.89h8.61l1.52 6.89c.05.23.15.41.29.55s.32.21.55.21h5.88c.48 0 .72-.22.72-.67 0-.03-.01-.06-.02-.09M237.87 18.2h-6.27l2.57-11.6c.08-.42.28-.63.59-.63.19 0 .32.05.37.15.06.09.12.26.17.48zM220.63 13.28c0-2.21-.31-4.15-.92-5.82-.62-1.67-1.5-3.05-2.65-4.16s-2.55-1.93-4.2-2.48C211.2.27 209.32 0 207.22 0c-.87 0-1.74.02-2.63.06a86 86 0 0 0-4.7.34c-.66.07-1.2.15-1.62.23-.39.06-.7.2-.91.42s-.31.58-.31 1.05v27.79c0 .48.1.82.31 1.05.21.22.52.36.91.42.42.08.96.16 1.62.23.65.07 1.38.13 2.18.19s1.64.1 2.52.15c.89.04 1.76.06 2.63.06 2.1 0 3.98-.27 5.64-.82 1.65-.55 3.05-1.37 4.2-2.48s2.03-2.49 2.65-4.16c.61-1.67.92-3.61.92-5.82zm-7.19 5.43c0 1.43-.14 2.6-.44 3.53-.29.92-.71 1.66-1.26 2.2q-.825.825-1.95 1.14c-.76.21-1.62.31-2.57.31-.53 0-1.08 0-1.66-.02-.57-.01-1.02-.03-1.32-.06V6.18c.3-.03.75-.05 1.32-.06.58-.02 1.13-.03 1.66-.03.95 0 1.81.11 2.57.32.75.21 1.4.59 1.95 1.13.55.55.97 1.29 1.26 2.21.3.93.44 2.1.44 3.53zM193.94 13.49c0-2.43-.32-4.51-.97-6.22-.64-1.71-1.52-3.1-2.64-4.18s-2.44-1.86-3.95-2.36c-1.51-.49-3.13-.73-4.86-.73-1.74 0-3.36.24-4.87.73-1.51.5-2.83 1.28-3.95 2.36s-2 2.47-2.64 4.18c-.65 1.71-.97 3.79-.97 6.22v5.01c0 2.43.32 4.51.97 6.22.64 1.71 1.52 3.1 2.64 4.18a10.1 10.1 0 0 0 3.95 2.35c1.51.49 3.13.74 4.87.74 1.73 0 3.35-.25 4.86-.74a10.1 10.1 0 0 0 3.95-2.35c1.12-1.08 2-2.47 2.64-4.18.65-1.71.97-3.79.97-6.22zm-7.19 5.01c0 2.55-.43 4.38-1.28 5.5q-1.29 1.68-3.93 1.68c-1.77 0-3.07-.56-3.91-1.68s-1.26-2.95-1.26-5.5v-5.01c0-2.55.42-4.38 1.26-5.5s2.14-1.69 3.91-1.69c1.76 0 3.07.57 3.93 1.69.85 1.12 1.28 2.95 1.28 5.5zM167.62 10.13c0-1.96-.35-3.59-1.07-4.9-.72-1.3-1.66-2.34-2.84-3.13-1.18-.78-2.53-1.33-4.05-1.64-1.51-.31-3.07-.46-4.67-.46-1.52 0-3.05.05-4.61.15-1.56.09-2.87.23-3.94.4-.65.11-1.12.29-1.43.54s-.47.74-.47 1.47v28.25c0 .23.09.42.26.57.16.15.36.23.59.23h5.42c.22 0 .42-.08.59-.25.16-.17.25-.37.25-.59V20.56c.53.02 1.11.05 1.73.08s1.18.04 1.68.04c1.58 0 3.11-.16 4.62-.48 1.5-.32 2.84-.88 4.02-1.66 1.18-.79 2.13-1.83 2.85-3.13.72-1.31 1.07-2.94 1.07-4.9zm-7.19.38c0 1.43-.42 2.49-1.28 3.19-.85.7-2.22 1.05-4.1 1.05h-.65c-.32 0-.67 0-1.05-.02-.38-.01-.73-.02-1.05-.04-.32-.01-.54-.02-.65-.02V6.09c.11 0 .33 0 .65-.02.32-.01.66-.02 1.01-.04.35-.01.69-.03 1.03-.04s.57-.02.71-.02c1.77 0 3.11.31 4.02.94s1.36 1.71 1.36 3.22zM140.74 18.12c-.8-1.4-2.29-2.69-4.48-3.87l-5.38-2.9c-.56-.31-1.02-.58-1.38-.82-.37-.24-.66-.46-.87-.67a2 2 0 0 1-.44-.65c-.08-.23-.12-.49-.12-.8 0-.76.24-1.32.73-1.68.49-.37 1.34-.55 2.55-.55.7 0 1.5.02 2.41.06q1.365.06 2.67.15c.87.06 1.65.1 2.34.15.68.04 1.18.07 1.49.1h.08q.42 0 .57-.21c.1-.14.15-.31.15-.5V1.68c0-.22-.07-.39-.19-.5-.13-.12-.28-.2-.44-.26-.4-.11-.94-.22-1.64-.33-.71-.11-1.46-.21-2.27-.3-.82-.08-1.66-.15-2.55-.21-.88-.05-1.7-.08-2.46-.08q-3.06 0-5.13.63c-1.37.42-2.48 1-3.32 1.74-.84.75-1.43 1.62-1.78 2.61-.35 1-.53 2.07-.53 3.22 0 .75.08 1.49.23 2.2.16.72.42 1.41.8 2.08.38.68.88 1.32 1.51 1.94.64.61 1.44 1.22 2.42 1.81l5.8 3.44c1.1.65 1.83 1.19 2.21 1.62.38.44.57.96.57 1.58 0 1.01-.26 1.75-.78 2.23-.52.47-1.51.71-2.96.71q-.63 0-1.71-.06c-.71-.05-1.46-.09-2.25-.13-.78-.04-1.54-.09-2.29-.15-.74-.05-1.32-.11-1.74-.16h-.13c-.22 0-.4.05-.54.16q-.21.18-.21.63v4.12c0 .23.08.41.25.55s.36.24.59.29c1.06.29 2.23.51 3.51.68 1.27.17 2.75.25 4.43.25 2.13 0 3.93-.27 5.38-.82 1.46-.55 2.64-1.25 3.56-2.12.91-.87 1.56-1.85 1.95-2.95.39-1.09.59-2.2.59-3.32 0-1.71-.4-3.26-1.2-4.66M118.82 13.49c0-2.43-.32-4.51-.97-6.22-.64-1.71-1.52-3.1-2.64-4.18s-2.44-1.86-3.95-2.36C109.75.24 108.13 0 106.4 0c-1.74 0-3.36.24-4.87.73-1.51.5-2.83 1.28-3.95 2.36s-2 2.47-2.64 4.18-.97 3.79-.97 6.22v5.01c0 2.43.33 4.51.97 6.22s1.52 3.1 2.64 4.18a10.1 10.1 0 0 0 3.95 2.35c1.51.49 3.13.74 4.87.74 1.73 0 3.35-.25 4.86-.74a10.1 10.1 0 0 0 3.95-2.35c1.12-1.08 2-2.47 2.64-4.18.65-1.71.97-3.79.97-6.22zm-7.19 5.01c0 2.55-.43 4.38-1.28 5.5q-1.29 1.68-3.93 1.68c-1.77 0-3.07-.56-3.91-1.68s-1.26-2.95-1.26-5.5v-5.01c0-2.55.42-4.38 1.26-5.5s2.14-1.69 3.91-1.69c1.76 0 3.07.57 3.93 1.69.85 1.12 1.28 2.95 1.28 5.5zM91.12 6.05V1.6q0-.51-.72-.63C89.62.8 88.48.6 87 .36 85.51.12 83.72 0 81.62 0c-1.52 0-3.04.19-4.57.59-1.52.39-2.9 1.09-4.12 2.1-1.21 1.01-2.2 2.37-2.96 4.1-.75 1.72-1.13 3.93-1.13 6.62v5.21c0 1.77.18 3.33.54 4.69.37 1.36.87 2.53 1.49 3.51.64.98 1.36 1.81 2.17 2.48s1.66 1.2 2.54 1.6c.89.39 1.78.67 2.69.84s1.76.25 2.55.25c2.1 0 3.91-.09 5.42-.27 1.51-.19 2.84-.39 3.99-.61.56-.12.84-.44.84-.97V16.01c0-.22-.08-.41-.25-.58a.8.8 0 0 0-.59-.26h-5.38c-.22 0-.41.09-.56.26-.16.17-.24.36-.24.58v9.67c-1 .09-2.08.13-3.23.13-.51 0-1.04-.1-1.6-.29-.56-.2-1.07-.56-1.53-1.1-.47-.53-.85-1.26-1.14-2.18-.29-.93-.44-2.12-.44-3.58v-5.25c0-1.37.12-2.52.38-3.45.25-.92.61-1.66 1.09-2.2.48-.55 1.06-.94 1.74-1.16.69-.22 1.45-.34 2.3-.34 1.79 0 3.44.04 4.96.13q2.265.12 3.78.21h.13c.19 0 .35-.04.46-.11s.17-.21.17-.44"/></g></svg>